{
	"asset":{
		"generator":"Khronos glTF Blender I/O v4.0.43",
		"version":"2.0"
	},
	"scene":0,
	"scenes":[
		{
			"name":"Scene",
			"nodes":[
				9
			]
		}
	],
	"nodes":[
		{
			"mesh":0,
			"name":"ship_glow_0"
		},
		{
			"mesh":1,
			"name":"ship_sail1_0"
		},
		{
			"mesh":2,
			"name":"ship_shields_0"
		},
		{
			"mesh":3,
			"name":"ship_stuff_0"
		},
		{
			"mesh":4,
			"name":"ship_trimsheet_0"
		},
		{
			"mesh":5,
			"name":"ship_woodplanks_0"
		},
		{
			"children":[
				0,
				1,
				2,
				3,
				4,
				5
			],
			"name":"ship"
		},
		{
			"children":[
				6
			],
			"name":"RootNode"
		},
		{
			"children":[
				7
			],
			"name":"483988186251461d9906e3ab9f28ed1a.fbx",
			"rotation":[
				0.70710688829422,
				0,
				0,
				0.7071066498756409
			]
		},
		{
			"children":[
				8
			],
			"name":"Sketchfab_model",
			"rotation":[
				-0.70710688829422,
				0,
				0,
				0.7071066498756409
			],
			"scale":[
				0.008333333767950535,
				0.00833333469927311,
				0.00833333469927311
			]
		}
	],
	"materials":[
		{
			"alphaMode":"BLEND",
			"doubleSided":true,
			"emissiveFactor":[
				1,
				1,
				1
			],
			"emissiveTexture":{
				"index":0
			},
			"name":"glow.001",
			"pbrMetallicRoughness":{
				"baseColorFactor":[
					1,
					1,
					1,
					0.25
				],
				"baseColorTexture":{
					"index":1
				},
				"metallicRoughnessTexture":{
					"index":2
				}
			}
		},
		{
			"doubleSided":true,
			"name":"sail1.001",
			"normalTexture":{
				"index":3
			},
			"occlusionTexture":{
				"index":4
			},
			"pbrMetallicRoughness":{
				"baseColorTexture":{
					"index":5
				},
				"metallicFactor":0,
				"metallicRoughnessTexture":{
					"index":6
				}
			}
		},
		{
			"name":"shields.001",
			"normalTexture":{
				"index":7
			},
			"occlusionTexture":{
				"index":8
			},
			"pbrMetallicRoughness":{
				"baseColorTexture":{
					"index":9
				},
				"metallicRoughnessTexture":{
					"index":8
				}
			}
		},
		{
			"doubleSided":true,
			"emissiveFactor":[
				1,
				1,
				1
			],
			"emissiveTexture":{
				"index":10
			},
			"name":"stuff.001",
			"normalTexture":{
				"index":11
			},
			"occlusionTexture":{
				"index":12
			},
			"pbrMetallicRoughness":{
				"baseColorTexture":{
					"index":13
				},
				"metallicRoughnessTexture":{
					"index":12
				}
			}
		},
		{
			"name":"trimsheet.001",
			"normalTexture":{
				"index":14
			},
			"occlusionTexture":{
				"index":15
			},
			"pbrMetallicRoughness":{
				"baseColorTexture":{
					"index":16
				},
				"metallicRoughnessTexture":{
					"index":15
				}
			}
		},
		{
			"name":"woodplanks.001",
			"normalTexture":{
				"index":17
			},
			"occlusionTexture":{
				"index":18
			},
			"pbrMetallicRoughness":{
				"baseColorTexture":{
					"index":19
				},
				"metallicRoughnessTexture":{
					"index":18
				}
			}
		}
	],
	"meshes":[
		{
			"name":"ship_glow_0",
			"primitives":[
				{
					"attributes":{
						"POSITION":0,
						"NORMAL":1,
						"TEXCOORD_0":2,
						"TEXCOORD_1":3
					},
					"indices":4,
					"material":0
				}
			]
		},
		{
			"name":"ship_sail1_0",
			"primitives":[
				{
					"attributes":{
						"POSITION":5,
						"NORMAL":6,
						"TEXCOORD_0":7
					},
					"indices":8,
					"material":1
				}
			]
		},
		{
			"name":"ship_shields_0",
			"primitives":[
				{
					"attributes":{
						"POSITION":9,
						"NORMAL":10,
						"TEXCOORD_0":11
					},
					"indices":12,
					"material":2
				}
			]
		},
		{
			"name":"ship_stuff_0",
			"primitives":[
				{
					"attributes":{
						"POSITION":13,
						"NORMAL":14,
						"TEXCOORD_0":15,
						"TEXCOORD_1":16
					},
					"indices":17,
					"material":3
				}
			]
		},
		{
			"name":"ship_trimsheet_0",
			"primitives":[
				{
					"attributes":{
						"POSITION":18,
						"NORMAL":19,
						"TEXCOORD_0":20
					},
					"indices":21,
					"material":4
				}
			]
		},
		{
			"name":"ship_woodplanks_0",
			"primitives":[
				{
					"attributes":{
						"POSITION":22,
						"NORMAL":23,
						"TEXCOORD_0":24
					},
					"indices":25,
					"material":5
				}
			]
		}
	],
	"textures":[
		{
			"sampler":0,
			"source":0
		},
		{
			"sampler":0,
			"source":1
		},
		{
			"sampler":0,
			"source":2
		},
		{
			"sampler":0,
			"source":3
		},
		{
			"sampler":0,
			"source":4
		},
		{
			"sampler":0,
			"source":5
		},
		{
			"sampler":0,
			"source":6
		},
		{
			"sampler":0,
			"source":7
		},
		{
			"sampler":0,
			"source":8
		},
		{
			"sampler":0,
			"source":9
		},
		{
			"sampler":0,
			"source":0
		},
		{
			"sampler":0,
			"source":10
		},
		{
			"sampler":0,
			"source":11
		},
		{
			"sampler":0,
			"source":12
		},
		{
			"sampler":0,
			"source":13
		},
		{
			"sampler":0,
			"source":14
		},
		{
			"sampler":0,
			"source":15
		},
		{
			"sampler":0,
			"source":16
		},
		{
			"sampler":0,
			"source":17
		},
		{
			"sampler":0,
			"source":18
		}
	],
	"images":[
		{
			"mimeType":"image/png",
			"name":"Image_11",
			"uri":"Image_11.png"
		},
		{
			"mimeType":"image/png",
			"name":"Image_16",
			"uri":"Image_16.png"
		},
		{
			"mimeType":"image/png",
			"name":"Image_17",
			"uri":"Image_17.png"
		},
		{
			"mimeType":"image/png",
			"name":"Image_2",
			"uri":"Image_2.png"
		},
		{
			"mimeType":"image/png",
			"name":"Image_1",
			"uri":"Image_1.png"
		},
		{
			"mimeType":"image/jpeg",
			"name":"WhatsApp Image 2024-01-06 at 18.59.34_24861185",
			"uri":"WhatsApp%20Image%202024-01-06%20at%2018_59_34_24861185.jpg"
		},
		{
			"mimeType":"image/png",
			"name":"Untitled",
			"uri":"Untitled.png"
		},
		{
			"mimeType":"image/png",
			"name":"Image_5",
			"uri":"Image_5.png"
		},
		{
			"mimeType":"image/png",
			"name":"Image_4",
			"uri":"Image_4.png"
		},
		{
			"mimeType":"image/png",
			"name":"Image_3",
			"uri":"Image_3.png"
		},
		{
			"mimeType":"image/png",
			"name":"Image_12",
			"uri":"Image_12.png"
		},
		{
			"mimeType":"image/png",
			"name":"Image_10",
			"uri":"Image_10.png"
		},
		{
			"mimeType":"image/png",
			"name":"Image_9",
			"uri":"Image_9.png"
		},
		{
			"mimeType":"image/png",
			"name":"Image_8",
			"uri":"Image_8.png"
		},
		{
			"mimeType":"image/png",
			"name":"Image_7",
			"uri":"Image_7.png"
		},
		{
			"mimeType":"image/png",
			"name":"Image_6",
			"uri":"Image_6.png"
		},
		{
			"mimeType":"image/png",
			"name":"Image_15",
			"uri":"Image_15.png"
		},
		{
			"mimeType":"image/png",
			"name":"Image_14",
			"uri":"Image_14.png"
		},
		{
			"mimeType":"image/png",
			"name":"Image_13",
			"uri":"Image_13.png"
		}
	],
	"accessors":[
		{
			"bufferView":0,
			"componentType":5126,
			"count":20,
			"max":[
				95.2321548461914,
				970.0419311523438,
				-798.4767456054688
			],
			"min":[
				-95.23216247558594,
				740.4046630859375,
				-1022.3231811523438
			],
			"type":"VEC3"
		},
		{
			"bufferView":1,
			"componentType":5126,
			"count":20,
			"type":"VEC3"
		},
		{
			"bufferView":2,
			"componentType":5126,
			"count":20,
			"type":"VEC2"
		},
		{
			"bufferView":3,
			"componentType":5126,
			"count":20,
			"type":"VEC2"
		},
		{
			"bufferView":4,
			"componentType":5123,
			"count":48,
			"type":"SCALAR"
		},
		{
			"bufferView":5,
			"componentType":5126,
			"count":205,
			"max":[
				694.2632446289062,
				1664.0264892578125,
				184.36505126953125
			],
			"min":[
				-746.9253540039062,
				295.9286193847656,
				-192.20982360839844
			],
			"type":"VEC3"
		},
		{
			"bufferView":6,
			"componentType":5126,
			"count":205,
			"type":"VEC3"
		},
		{
			"bufferView":7,
			"componentType":5126,
			"count":205,
			"type":"VEC2"
		},
		{
			"bufferView":8,
			"componentType":5123,
			"count":684,
			"type":"SCALAR"
		},
		{
			"bufferView":9,
			"componentType":5126,
			"count":19265,
			"max":[
				323.5381774902344,
				328.042236328125,
				873.55810546875
			],
			"min":[
				-323.5381774902344,
				214.3483123779297,
				-869.9325561523438
			],
			"type":"VEC3"
		},
		{
			"bufferView":10,
			"componentType":5126,
			"count":19265,
			"type":"VEC3"
		},
		{
			"bufferView":11,
			"componentType":5126,
			"count":19265,
			"type":"VEC2"
		},
		{
			"bufferView":12,
			"componentType":5123,
			"count":87024,
			"type":"SCALAR"
		},
		{
			"bufferView":13,
			"componentType":5126,
			"count":13037,
			"max":[
				415.7726135253906,
				952.7632446289062,
				1144.894775390625
			],
			"min":[
				-415.7726135253906,
				194.34649658203125,
				-1120.2813720703125
			],
			"type":"VEC3"
		},
		{
			"bufferView":14,
			"componentType":5126,
			"count":13037,
			"type":"VEC3"
		},
		{
			"bufferView":15,
			"componentType":5126,
			"count":13037,
			"type":"VEC2"
		},
		{
			"bufferView":16,
			"componentType":5126,
			"count":13037,
			"type":"VEC2"
		},
		{
			"bufferView":17,
			"componentType":5123,
			"count":61260,
			"type":"SCALAR"
		},
		{
			"bufferView":18,
			"componentType":5126,
			"count":32166,
			"max":[
				771.5426635742188,
				1669.297607421875,
				1151.389404296875
			],
			"min":[
				-771.5426635742188,
				-10.68281078338623,
				-1151.38671875
			],
			"type":"VEC3"
		},
		{
			"bufferView":19,
			"componentType":5126,
			"count":32166,
			"type":"VEC3"
		},
		{
			"bufferView":20,
			"componentType":5126,
			"count":32166,
			"type":"VEC2"
		},
		{
			"bufferView":21,
			"componentType":5123,
			"count":133542,
			"type":"SCALAR"
		},
		{
			"bufferView":22,
			"componentType":5126,
			"count":3293,
			"max":[
				297.35003662109375,
				483.4070129394531,
				1132.99755859375
			],
			"min":[
				-297.35003662109375,
				19.92621612548828,
				-1132.994873046875
			],
			"type":"VEC3"
		},
		{
			"bufferView":23,
			"componentType":5126,
			"count":3293,
			"type":"VEC3"
		},
		{
			"bufferView":24,
			"componentType":5126,
			"count":3293,
			"type":"VEC2"
		},
		{
			"bufferView":25,
			"componentType":5123,
			"count":14220,
			"type":"SCALAR"
		}
	],
	"bufferViews":[
		{
			"buffer":0,
			"byteLength":240,
			"byteOffset":0,
			"target":34962
		},
		{
			"buffer":0,
			"byteLength":240,
			"byteOffset":240,
			"target":34962
		},
		{
			"buffer":0,
			"byteLength":160,
			"byteOffset":480,
			"target":34962
		},
		{
			"buffer":0,
			"byteLength":160,
			"byteOffset":640,
			"target":34962
		},
		{
			"buffer":0,
			"byteLength":96,
			"byteOffset":800,
			"target":34963
		},
		{
			"buffer":0,
			"byteLength":2460,
			"byteOffset":896,
			"target":34962
		},
		{
			"buffer":0,
			"byteLength":2460,
			"byteOffset":3356,
			"target":34962
		},
		{
			"buffer":0,
			"byteLength":1640,
			"byteOffset":5816,
			"target":34962
		},
		{
			"buffer":0,
			"byteLength":1368,
			"byteOffset":7456,
			"target":34963
		},
		{
			"buffer":0,
			"byteLength":231180,
			"byteOffset":8824,
			"target":34962
		},
		{
			"buffer":0,
			"byteLength":231180,
			"byteOffset":240004,
			"target":34962
		},
		{
			"buffer":0,
			"byteLength":154120,
			"byteOffset":471184,
			"target":34962
		},
		{
			"buffer":0,
			"byteLength":174048,
			"byteOffset":625304,
			"target":34963
		},
		{
			"buffer":0,
			"byteLength":156444,
			"byteOffset":799352,
			"target":34962
		},
		{
			"buffer":0,
			"byteLength":156444,
			"byteOffset":955796,
			"target":34962
		},
		{
			"buffer":0,
			"byteLength":104296,
			"byteOffset":1112240,
			"target":34962
		},
		{
			"buffer":0,
			"byteLength":104296,
			"byteOffset":1216536,
			"target":34962
		},
		{
			"buffer":0,
			"byteLength":122520,
			"byteOffset":1320832,
			"target":34963
		},
		{
			"buffer":0,
			"byteLength":385992,
			"byteOffset":1443352,
			"target":34962
		},
		{
			"buffer":0,
			"byteLength":385992,
			"byteOffset":1829344,
			"target":34962
		},
		{
			"buffer":0,
			"byteLength":257328,
			"byteOffset":2215336,
			"target":34962
		},
		{
			"buffer":0,
			"byteLength":267084,
			"byteOffset":2472664,
			"target":34963
		},
		{
			"buffer":0,
			"byteLength":39516,
			"byteOffset":2739748,
			"target":34962
		},
		{
			"buffer":0,
			"byteLength":39516,
			"byteOffset":2779264,
			"target":34962
		},
		{
			"buffer":0,
			"byteLength":26344,
			"byteOffset":2818780,
			"target":34962
		},
		{
			"buffer":0,
			"byteLength":28440,
			"byteOffset":2845124,
			"target":34963
		}
	],
	"samplers":[
		{
			"magFilter":9729,
			"minFilter":9987
		}
	],
	"buffers":[
		{
			"byteLength":2873564,
			"uri":"untitled2.bin"
		}
	]
}
